<svg width="7" height="11" viewBox="0 0 7 11" xmlns="http://www.w3.org/2000/svg">
<path d="M0.44426 5.92922L5.3394 10.8243C5.45262 10.9376 5.60376 11 5.76491 11C5.92606 11 6.0772 10.9376 6.19042 10.8243L6.55091 10.4639C6.78549 10.229 6.78549 9.84733 6.55091 9.61285L2.44034 5.50228L6.55547 1.38715C6.66869 1.27384 6.7312 1.1228 6.7312 0.961731C6.7312 0.800488 6.66869 0.649441 6.55547 0.536043L6.19498 0.175729C6.08167 0.0624209 5.93062 -8.83685e-07 5.76947 -8.69597e-07C5.60831 -8.55509e-07 5.45718 0.062421 5.34396 0.175729L0.44426 5.07525C0.330773 5.18892 0.268441 5.34068 0.268798 5.50201C0.268441 5.66397 0.330773 5.81564 0.44426 5.92922Z"/>
</svg>