<?xml version="1.0" encoding="utf-8"?><svg viewBox="0 0 23 18" xmlns="http://www.w3.org/2000/svg" xmlns:xlink="http://www.w3.org/1999/xlink"><style>:root>svg{display:none}:root>svg:target{display:block}</style><svg viewBox="0 0 7 11" id="back" xmlns="http://www.w3.org/2000/svg"><path d="M.444 5.93l4.895 4.894a.597.597 0 00.426.176.597.597 0 00.425-.176l.36-.36a.603.603 0 000-.851l-4.11-4.11 4.115-4.116a.598.598 0 00.176-.425.598.598 0 00-.176-.426l-.36-.36A.597.597 0 005.769 0a.597.597 0 00-.425.176l-4.9 4.9a.598.598 0 00-.175.426c0 .162.062.314.175.427z"/></svg><svg viewBox="0 0 8 6" id="check" xmlns="http://www.w3.org/2000/svg"><path d="M2.905 5.572a.748.748 0 01-.53-.22L.92 3.898a.75.75 0 111.06-1.06l.925.925L6.02.647a.75.75 0 111.06 1.061L3.436 5.353a.748.748 0 01-.53.22z"/></svg><svg viewBox="0 0 23 18" id="pass-hide" xmlns="http://www.w3.org/2000/svg"><path d="M14.355 8.819l1.307-1.307c.095.356.15.728.15 1.113a4.317 4.317 0 01-4.312 4.313 4.3 4.3 0 01-1.113-.151l1.307-1.307a2.862 2.862 0 002.661-2.661zm8.554-.543c-.088-.16-1.342-2.356-3.793-4.218L18.07 5.104a14.386 14.386 0 013.366 3.522c-.852 1.297-4.194 5.749-9.936 5.749-.861 0-1.662-.11-2.415-.286L7.904 15.27c1.086.333 2.28.543 3.596.543 7.524 0 11.254-6.56 11.41-6.839a.718.718 0 000-.698zm-2.995-7.049L4.102 17.04a.717.717 0 01-1.016 0 .718.718 0 010-1.017l2.011-2.012C1.845 12.048.192 9.158.091 8.974a.719.719 0 010-.698c.155-.28 3.885-6.838 11.409-6.838 1.945 0 3.63.443 5.071 1.1L18.898.21a.718.718 0 111.016 1.016zM6.17 12.94l1.82-1.82a4.284 4.284 0 01-.801-2.495A4.317 4.317 0 0111.5 4.313c.93 0 1.79.298 2.495.8l1.471-1.47a10.583 10.583 0 00-3.966-.768c-5.742 0-9.084 4.452-9.935 5.749.54.82 2.095 2.895 4.604 4.316zm2.863-2.864l3.92-3.919A2.843 2.843 0 0011.5 5.75a2.878 2.878 0 00-2.875 2.875c0 .532.155 1.024.407 1.451z"/></svg><svg viewBox="0 0 23 15" id="pass-show" xmlns="http://www.w3.org/2000/svg"><path d="M22.854 6.882C22.648 6.602 17.753 0 11.5 0 5.247 0 .35 6.601.146 6.882a.759.759 0 000 .895c.205.281 5.101 6.882 11.354 6.882 6.253 0 11.148-6.6 11.354-6.882a.758.758 0 000-.895zM11.5 13.142c-4.606 0-8.595-4.38-9.776-5.813 1.18-1.433 5.16-5.813 9.776-5.813 4.605 0 8.594 4.381 9.776 5.814-1.18 1.434-5.16 5.813-9.776 5.813z"/><path d="M11.5 2.78a4.555 4.555 0 00-4.55 4.55c0 2.508 2.041 4.55 4.55 4.55a4.555 4.555 0 004.55-4.55c0-2.509-2.042-4.55-4.55-4.55zm0 7.583A3.036 3.036 0 018.467 7.33 3.036 3.036 0 0111.5 4.297a3.036 3.036 0 013.033 3.033 3.036 3.036 0 01-3.033 3.033z"/></svg></svg>