<svg width="470" height="120" viewBox="0 0 470 120" fill="none" xmlns="http://www.w3.org/2000/svg">
<path d="M217.247 96.7888L224.357 100.872V52.8871H236.073V48.0181H217.261L217.247 96.7888ZM270.074 63.1648L265.212 65.0864V52.8326H270.074V63.1648ZM260.332 48.0012L258.101 50.2729V95.6173L265.212 91.5111V70.3222L270.474 68.2431L277.185 66.0291V50.384L274.801 48.0014H260.332L260.332 48.0012ZM221.122 25.1513L220.997 24.89C224.556 22.2702 224.805 19.8268 224.808 19.8016L225.1 19.7874C225.88 23.8473 221.17 25.1388 221.122 25.1513H221.122ZM262.271 28.3922C263.257 27.7666 266.32 25.3025 264.282 19.8671L264.534 19.723C264.605 19.8099 266.258 21.9016 265.807 24.4092C265.511 26.057 264.372 27.4811 262.428 28.641C262.253 28.7528 262.143 28.8074 262.143 28.8074L262.005 28.5461C262.096 28.494 262.186 28.4432 262.271 28.3922H262.271ZM284.991 25.4412C285.046 25.2802 285.459 25.1009 285.965 25.1009C286.198 25.1009 286.443 25.1359 286.694 25.2067C286.924 25.272 287.22 25.4715 287.532 25.6838C287.808 25.8708 288.151 26.1027 288.285 26.1027L288.442 26.0998L288.436 26.2555C288.428 26.492 288.254 26.9374 287.658 26.9374C287.07 26.9374 286.19 26.4927 285.043 25.6145L284.957 25.5412L284.991 25.441L284.991 25.4412ZM248.636 22.6622C243.746 26.7775 239.893 34.2178 239.859 34.2833L239.631 34.8229C238.449 37.4024 236.978 40.977 236.637 43.4213L239.596 46.2478H244.641C244.364 45.7268 243.937 45.138 243.351 44.9035L242.963 44.748L243.363 44.6253C243.374 44.6228 243.435 44.6048 243.536 44.6048C243.905 44.6048 244.651 44.8186 245.499 46.248H246.699C246.591 45.7377 245.942 44.0184 242.071 42.8032L241.865 42.7371L242.002 42.5696C242.074 42.4792 249.402 33.5318 259.035 29.6249L259.162 29.8898C259.108 29.922 253.739 32.9882 251.03 35.4775C252.205 35.4677 256.16 35.3933 259.712 34.8436L259.77 34.8347L259.818 34.8677C259.946 34.9565 273.477 43.699 283.516 46.181H290.687C290.687 46.1798 290.686 46.1798 290.685 46.1798H292.368C292.308 45.6859 291.637 43.3284 286.447 42.7752C284.866 42.607 282.658 42.2732 281.04 41.44C277.639 39.3358 272.083 35.5024 269.091 31.3064L268.979 31.1158L269.203 31.0713L269.258 31.0632C269.534 31.0597 269.86 31.0147 270.251 30.9298C270.535 30.9076 270.829 30.8951 271.121 30.8951C272.651 30.8951 275.004 31.2269 277.517 32.8113L277.572 32.8461L277.583 32.9087C277.591 32.949 278.395 36.9567 282.648 38.1026L284.729 36.8244L283.18 35.5859L284.092 34.9398L282.619 35.1403L282.55 35.0848C281.967 34.8692 281.485 34.0817 281.473 33.3084C281.465 32.8276 281.632 31.9541 282.867 31.4924C283.89 31.2365 284.505 31.1603 285.583 31.0753L285.674 31.0681L285.721 31.1459C286.135 31.8325 286.853 32.4599 287.741 32.9156L287.977 33.0363L286.174 34.1247L289.579 33.4866L289.794 33.4247C290.308 33.2746 290.945 32.912 291.687 32.3472C292.109 32.0249 292.479 31.6975 292.787 31.3753C292.699 30.9993 292.423 30.0657 291.796 29.612L291.537 29.4212L291.853 29.3479C291.853 29.3479 291.879 29.3425 291.927 29.3425C292.142 29.3425 292.709 29.4535 293.503 30.4452C293.603 30.267 293.65 30.141 293.668 30.082C293.51 29.7526 292.474 27.7227 290.379 26.5582L290.343 26.5394L288.473 23.345C288.117 23.0678 283.417 19.4749 278.623 18.8181L280.144 20.3397L279.936 20.5475C278.332 18.9435 274.804 18.36 274.143 18.2633C273.836 19.0348 274.369 19.9442 274.603 20.3406C274.634 20.3941 274.659 20.4373 274.677 20.4702L274.708 20.5292C274.862 20.8165 275.118 21.2981 275.59 21.7707L275.419 22.007L274.874 21.735L274.855 21.7134C273.729 20.4738 273.191 19.3829 273.259 18.47C273.309 17.7941 273.685 17.48 273.7 17.4667L273.73 17.4415L273.77 17.4353C273.955 17.4041 274.153 17.389 274.357 17.389C274.542 17.389 274.728 17.4014 274.909 17.4239C268.616 14.6787 262.225 13.4391 260.08 13.2923C258.866 13.209 258.147 13.1616 257.496 13.1616C256.356 13.1616 255.476 13.311 253.124 13.7128C252.546 13.8106 251.881 13.9242 251.084 14.0558C250.915 14.0636 234.118 14.8513 223.208 17.6834L223.174 17.693L220.05 17.0128C219.755 17.0845 217.413 17.6769 214.689 19.1807L214.663 19.1941L214.636 19.1983C214.46 19.2223 196.734 21.7858 179.336 34.8568L179.239 34.9291C178.085 35.7966 174.572 38.4322 173.632 40.7039C173.045 42.1224 173.472 43.4275 174.719 44.028C175.184 44.2518 175.741 44.3654 176.377 44.3654C178.449 44.3654 180.779 43.175 181.795 41.5961C181.887 41.4538 181.917 41.2845 181.881 41.12C181.845 40.9536 181.748 40.8131 181.606 40.7209C181.503 40.6547 181.385 40.6195 181.263 40.6195C181.046 40.6195 180.847 40.7278 180.73 40.9106C179.846 42.2834 177.827 43.1041 176.386 43.1041C175.944 43.1041 175.568 43.0309 175.27 42.8868C175.105 42.8079 174.313 42.3489 174.839 41.0906C174.888 40.9714 175.392 39.8776 177.716 38.1529C181.64 35.2425 189.723 30.5042 205.942 24.4637L206.068 24.7297L201.6 27.302C201.3 27.5686 195.669 32.512 189.209 33.8401C188.828 34.0639 183.079 37.559 182.52 44.0827L185.467 46.1135H190.078C189.723 45.4923 189.316 45.0852 188.863 44.9043L188.473 44.7478L188.875 44.6259C188.886 44.6235 188.946 44.6055 189.045 44.6055C189.399 44.6055 190.11 44.8041 190.927 46.1135H192.197C192.159 45.5264 191.769 43.3068 188.032 42.3295L187.929 42.3037L187.922 42.1979C187.919 42.1578 187.691 38.1855 192.05 37.4249L192.073 37.4213L192.097 37.4249C192.107 37.4256 193.154 37.5743 194.894 37.5743C199.874 37.5743 209.559 36.4126 218.458 28.633L218.678 28.8263C218.615 28.9176 217.316 30.8285 215.885 31.9356C217.352 31.6884 221.139 31.1517 227.038 31.02L227.074 31.0194L227.107 31.0343C229.111 32.0182 232.232 32.9176 234.496 33.4982L234.437 33.7864L232.574 33.5038L226.822 32.0824L223.879 32.1476C223.652 32.6229 222.419 34.8893 218.394 37.9429C218.279 38.1255 217.492 39.3921 217.105 40.3685C217.788 40.856 222.269 43.9511 228.561 46.1135H235.443C235.383 45.6195 234.884 43.903 230.894 43.0133C230.641 43.0026 227.435 42.8211 223.968 40.2701L223.717 40.0857L224.017 40.0077C224.1 39.9854 232.381 37.8024 236.776 34.1113L236.833 34.0639L236.904 34.0808C237.743 34.2706 238.453 34.4193 238.949 34.5149C241.396 28.5147 247.851 21.9177 247.917 21.8504L247.967 21.7994L254.047 22.4698L254.028 22.7633L248.635 22.6631L248.636 22.6622ZM249.4 48.0727L244.867 57.8911L244.586 57.8294V48.001H237.476V107.621L244.586 103.465V70.4921L249.116 60.3192L249.4 60.3782V100.709L256.509 96.5853V48.0008H249.4V48.0722V48.0727ZM208.359 60.1343H203.621V52.8326H208.359V60.1343ZM198.785 47.9923L196.562 50.2279L196.51 84.6871L203.621 88.8428V65.002H208.359V91.5951L215.47 95.7024L215.503 50.3462L213.185 48.0146L198.785 47.9923ZM182.844 60.2935L187.494 62.1245V74.2603L182.844 71.6144V60.2935ZM175.734 72.6277L194.605 83.6321V60.3964L182.844 55.8203V52.8702H194.606V48.0012L175.734 48.0128V72.6277ZM290.764 60.1341H286.209V52.8323H290.764V60.1341ZM295.676 48.0117L281.279 48.0021L278.988 50.2825V83.4978L286.209 79.3395V65.002H290.764V76.7609L297.983 72.6511V50.3335L295.676 48.0119V48.0117Z" fill="#231F20"/>
<path d="M170.27 16.1625C170.159 16.3854 169.842 16.6925 169.419 16.8669C168.474 17.2578 167.333 17.0021 166.831 15.785L165.995 13.7569L167.356 13.1966L168.192 15.2228C168.335 15.5712 168.629 15.6803 169.002 15.5351C169.32 15.4037 169.634 15.1763 169.751 14.9248L168.801 12.6003L170.162 12.0382L172.371 17.3932L171.01 17.9553L170.271 16.1625H170.27Z" fill="#231F20"/>
<path d="M174.779 13.8578L173.815 12.4104L173.776 12.4237L173.967 14.1594L174.78 13.8578H174.779ZM177.79 15.3669L176.319 15.9128L175.562 14.9551L174.112 15.4919L174.179 16.7066L172.707 17.2524L172.587 11.1206L173.836 10.6569L177.79 15.3667V15.3669Z" fill="#231F20"/>
<path d="M181.587 12.8139C181.428 13.8603 180.713 14.4799 180.023 14.7115C178.945 15.073 177.648 14.8099 177.228 13.5614L176.593 11.6692C176.177 10.4289 177.049 9.42823 178.15 9.05852C178.825 8.83202 179.735 8.84471 180.505 9.67321L179.527 10.512C178.925 9.95428 177.752 10.52 177.982 11.2028L178.617 13.095C178.838 13.7547 180.142 13.5237 180.188 12.6618L181.587 12.8137V12.8139Z" fill="#231F20"/>
<path d="M183.723 8.83201L185.001 13.0529L183.584 13.4814L182.306 9.26052L180.833 9.70729L180.431 8.37634L184.791 7.05541L185.195 8.38636L183.723 8.83201Z" fill="#231F20"/>
<path d="M188.406 12.079L186.984 12.4612L185.481 6.86811L186.903 6.48593L187.472 8.60262L189.083 8.17033L188.515 6.05364L189.937 5.67168L191.439 11.2645L190.017 11.6467L189.45 9.53713L187.839 9.97054L188.406 12.079Z" fill="#231F20"/>
<path d="M194.266 8.06007L193.49 6.50351L193.45 6.51264L193.422 8.25873L194.266 8.06007ZM197.066 9.93244L195.538 10.2903L194.906 9.24603L193.401 9.59948L193.316 10.8115L191.787 11.1712L192.431 5.07145L193.729 4.76633L197.066 9.93221L197.066 9.93244Z" fill="#231F20"/>
<path d="M198.525 5.15053C198.093 5.23917 197.889 5.51289 197.968 5.90576C198.044 6.27457 198.318 6.51889 198.784 6.4258L199.625 6.25475L199.366 4.98015L198.525 5.15031V5.15053ZM200.24 9.29348L199.853 7.38526L199.621 7.4327L198.484 9.64849L196.697 10.0111L198.012 7.60686C197.326 7.5131 196.723 7.17546 196.503 6.08527C196.293 4.88416 196.959 4.0492 198.274 3.78239L200.534 3.32515L201.683 9.00128L200.24 9.29304L200.24 9.29348Z" fill="#231F20"/>
<path d="M206.468 6.24115C206.533 6.66186 207.033 6.7917 207.494 6.71999C207.955 6.64939 208.382 6.36832 208.319 5.95585L208.017 3.9993C207.949 3.5552 207.44 3.42647 206.971 3.49908C206.519 3.56879 206.101 3.86522 206.167 4.28482L206.468 6.24137V6.24115ZM204.719 4.50842C204.515 3.19084 205.596 2.36234 206.784 2.1786C207.973 1.99508 209.262 2.46612 209.464 3.77636L209.767 5.73269C209.969 7.04204 208.89 7.879 207.701 8.06163C206.513 8.24515 205.223 7.7741 205.021 6.46476L204.72 4.5082L204.719 4.50842Z" fill="#231F20"/>
<path d="M213.052 1.39711L214.741 1.18508L213.495 4.26836L215.463 6.93203L213.774 7.14406L212.522 5.314L211.786 7.39305L210.089 7.60619L211.344 4.53873L209.367 1.85991L211.064 1.64699L212.292 3.48796L213.052 1.39711Z" fill="#231F20"/>
<path d="M217.869 3.69173C218.749 3.61378 218.608 2.17281 217.731 2.26702L216.883 2.3492L217.023 3.77391L217.869 3.69173ZM215.293 1.13184L217.597 0.907342C219.007 0.769481 219.805 1.71914 219.905 2.73673C220.006 3.76255 219.396 4.84985 218.004 4.98482L217.149 5.069L217.313 6.75429L215.856 6.89572L215.293 1.13184Z" fill="#231F20"/>
<path d="M222.79 3.81646L222.269 2.15723L222.227 2.15902L221.926 3.87838L222.79 3.81646ZM225.261 6.10598L223.694 6.21956L223.235 5.08839L221.693 5.19953L221.418 6.38437L219.852 6.49729L221.449 0.575731L222.778 0.479073L225.261 6.10598Z" fill="#231F20"/>
<path d="M227.078 6.02536L225.606 6.09084L225.35 0.306247L226.821 0.240768L226.918 2.43006L228.586 2.35679L228.488 0.166381L229.959 0.102016L230.215 5.88661L228.744 5.95208L228.648 3.76992L226.981 3.84408L227.078 6.02536Z" fill="#231F20"/>
<path d="M232.558 5.83826L231.086 5.85987L230.999 0.0697099L232.47 0.0467703L232.504 2.2394L234.173 2.21335L234.139 0.0216034L235.611 0L235.7 5.78993L234.227 5.8131L234.194 3.62848L232.525 3.65432L232.558 5.83826Z" fill="#231F20"/>
<path d="M239.216 3.35612L238.835 1.65903L238.794 1.65836L238.35 3.34632L239.216 3.35612ZM241.487 5.84341L239.917 5.82648L239.554 4.66101L238.008 4.64319L237.635 5.80042L236.065 5.78349L238.15 0.0151634L239.483 0.0294172L241.487 5.84363V5.84341Z" fill="#231F20"/>
<path d="M244.037 1.54076C243.596 1.52361 243.333 1.74298 243.318 2.14387C243.304 2.51981 243.512 2.82338 243.987 2.8403L244.845 2.87326L244.896 1.57372L244.037 1.54076H244.037ZM244.726 5.9719L244.801 4.02604L244.564 4.01802L242.936 5.90309L241.112 5.83226L242.959 3.80778C242.314 3.55366 241.808 3.08462 241.851 1.97216C241.93 0.755908 242.775 0.100456 244.116 0.151458L246.42 0.240989L246.196 6.02914L244.726 5.97213L244.726 5.9719Z" fill="#231F20"/>
<path d="M251.499 4.46702C251.464 4.89129 251.92 5.13383 252.384 5.17124C252.849 5.20977 253.331 5.03606 253.365 4.62069L253.528 2.6481C253.564 2.19977 253.1 1.95635 252.627 1.91692C252.171 1.87929 251.696 2.07082 251.661 2.49509L251.499 4.46702ZM250.202 2.37438C250.311 1.047 251.554 0.492214 252.753 0.590654C253.95 0.689094 255.095 1.44789 254.986 2.76814L254.824 4.74073C254.716 6.0601 253.471 6.6229 252.273 6.52446C251.075 6.42491 249.932 5.66701 250.04 4.34697L250.202 2.37438Z" fill="#231F20"/>
<path d="M258.032 3.9942C258.908 4.09887 259.069 2.66035 258.189 2.57105L257.344 2.47795L257.187 3.9011L258.032 3.9942H258.032ZM256.039 0.95903L258.34 1.21426C259.746 1.36905 260.332 2.46281 260.22 3.47861C260.107 4.50266 259.287 5.44051 257.898 5.28728L257.044 5.19352L256.858 6.87614L255.403 6.71511L256.039 0.959253L256.039 0.95903Z" fill="#231F20"/>
<path d="M264.746 2.02917L264.559 3.40689L262.444 3.12025L261.853 7.47991L260.394 7.28214L261.171 1.54409L264.746 2.02917Z" fill="#231F20"/>
<path d="M266.737 5.71243L266.606 3.97792L266.566 3.97079L265.881 5.57724L266.737 5.71243ZM268.622 8.50305L267.071 8.25807L266.882 7.05139L265.354 6.81064L264.817 7.90083L263.267 7.65651L266.165 2.25143L267.483 2.459L268.622 8.50305Z" fill="#231F20"/>
<path d="M270.403 8.83959L268.957 8.56676L270.031 2.87638L271.478 3.14921L271.071 5.30353L272.711 5.61333L273.117 3.45878L274.564 3.73272L273.489 9.42244L272.042 9.15028L272.448 7.00308L270.808 6.69439L270.403 8.83959Z" fill="#231F20"/>
<path d="M277.98 8.03557C277.99 8.03736 278.361 7.00618 278.361 7.00618L278.323 6.98814L277.543 7.97188L275.69 9.89792L274.342 9.59815L275.596 3.94607L277.034 4.26478L276.465 6.82712C276.456 6.82534 276.157 7.64716 276.157 7.64716L276.187 7.6623L276.883 6.75296L278.861 4.67012L280.171 4.96121L278.917 10.614L277.478 10.2946L277.98 8.03557H277.98Z" fill="#231F20"/>
<path d="M284.049 10.122C283.768 11.232 282.769 11.6705 281.349 11.3106C280.477 11.0886 279.821 10.4837 279.576 9.68725L280.659 9.21019C280.886 9.64849 281.238 9.95651 281.586 10.0451C282.157 10.1904 282.54 10.0766 282.644 9.67299C282.746 9.26832 282.538 8.96142 282.077 8.84494L281.244 8.6338L281.492 7.65831L282.293 7.86231C282.713 7.96877 283.022 7.81933 283.116 7.44606C283.196 7.12847 283.013 6.85475 282.538 6.73359C282.125 6.62914 281.63 6.78214 281.414 6.86989L280.854 5.95142C281.437 5.51645 282.126 5.36322 282.943 5.57013C284.187 5.88705 284.724 6.66477 284.465 7.68682C284.372 8.05207 284.037 8.50685 283.58 8.61153C284.093 9.0534 284.176 9.62288 284.049 10.1222V10.122Z" fill="#231F20"/>
<path d="M287.322 10.2881L287.401 8.55005L287.362 8.53847L286.488 10.0503L287.322 10.2883V10.2881ZM288.858 13.2865L287.346 12.8551L287.303 11.6351L285.817 11.2108L285.152 12.2295L283.642 11.799L287.173 6.78325L288.455 7.14828L288.858 13.2865Z" fill="#231F20"/>
<path d="M290.957 7.87746L292.358 8.33024L291.007 12.5182L292.508 13.0033L293.861 8.81531L295.262 9.26742L293.91 13.4543L294.579 13.6718L293.795 16.1001L292.472 15.6723L292.83 14.5676L289.179 13.3881L290.957 7.87746Z" fill="#231F20"/>
<path d="M298.498 14.1128C298.506 14.1157 299.009 13.1418 299.009 13.1418L298.973 13.1202L298.072 13.9919L295.984 15.6603L294.686 15.1868L296.669 9.74671L298.051 10.2505L297.153 12.7162C297.145 12.7144 296.741 13.4894 296.741 13.4894L296.769 13.5082L297.578 12.6972L299.811 10.891L301.071 11.3503L299.089 16.791L297.706 16.2872L298.498 14.1122L298.498 14.1128Z" fill="#231F20"/>
<path d="M303.444 13.7939C303.035 13.6275 302.713 13.744 302.563 14.1153C302.421 14.4643 302.514 14.8206 302.954 14.9995L303.75 15.3226L304.24 14.1171L303.444 13.7939ZM302.583 18.1956L303.315 16.3912L303.095 16.3017L300.924 17.5208L299.233 16.8342L301.658 15.5598C301.138 15.1006 300.822 14.4856 301.241 13.4556C301.73 12.3384 302.747 12.0099 303.989 12.5137L306.128 13.383L303.947 18.7498L302.583 18.1956Z" fill="#231F20"/>
<path d="M235.497 120L235.098 119.764L179.832 87.1016L173.942 83.2896C165.236 77.9293 165.031 71.3462 164.814 64.3759L164.813 64.3347C164.782 63.3681 164.751 62.3664 164.699 61.3194L164.637 60.298L164.439 53.5747H0V52.0012L165.966 52.0012L166.207 60.2263L166.27 61.2323C166.323 62.3038 166.355 63.3107 166.385 64.2844L166.386 64.3256C166.607 71.4257 166.782 77.0339 174.781 81.9595L180.674 85.7722L235.497 118.173L290.193 85.8517L296.199 81.9682C304.214 77.0331 304.388 71.4258 304.609 64.3265L304.61 64.2862C304.641 63.3124 304.672 62.3047 304.725 61.2432L304.783 60.3436L305.03 52.0012H470V53.5747H306.557L306.354 60.4303L306.295 61.3316C306.244 62.3672 306.213 63.3686 306.183 64.3363L306.182 64.3757C305.964 71.3453 305.76 77.9282 297.04 83.2983L291.007 87.198L235.497 120Z" fill="#231F20"/>
<path d="M235.497 115.684L235.098 115.448L181.851 83.9822L175.924 80.1462C168.888 75.8304 168.744 71.2264 168.528 64.2594C168.497 63.2534 168.464 62.2142 168.41 61.1071L168.349 60.1648L168.047 49.8584H0V48.2861L169.575 48.2861L169.921 60.104L169.98 61.0178C170.036 62.1508 170.069 63.1971 170.101 64.2102C170.309 70.897 170.435 74.9326 176.762 78.8152L182.693 82.6533L235.497 113.856L288.303 82.6533L294.216 78.825C300.561 74.9326 300.686 70.897 300.894 64.2102C300.927 63.1971 300.959 62.1499 301.015 61.0303L301.075 60.104L301.42 48.2861H470V49.8584H302.948L302.645 60.1913L302.585 61.1187C302.531 62.2142 302.498 63.2534 302.467 64.2594C302.25 71.2262 302.107 75.8302 295.056 80.156L289.116 83.9992L235.497 115.684Z" fill="#3DAE2B"/>
</svg>
